<?xml version="1.0" standalone="no"?>
<!DOCTYPE svg PUBLIC "-//W3C//DTD SVG 20010904//EN"
 "http://www.w3.org/TR/2001/REC-SVG-20010904/DTD/svg10.dtd">
<svg version="1.0" xmlns="http://www.w3.org/2000/svg"
 width="259.000000pt" height="259.000000pt" viewBox="0 0 259.000000 259.000000"
 preserveAspectRatio="xMidYMid meet">
<metadata>
Created by potrace 1.14, written by Peter Selinger 2001-2017
</metadata>
<g transform="translate(0.000000,259.000000) scale(0.100000,-0.100000)"
fill="#000000" stroke="none">
<path d="M1122 2045 c-116 -26 -258 -106 -367 -209 l-60 -56 135 2 c124 2 139
4 190 29 155 76 372 73 530 -6 40 -20 60 -23 168 -23 67 1 122 4 122 7 0 4
-19 22 -41 41 -23 19 -47 39 -53 45 -39 38 -194 125 -261 147 -117 38 -258 47
-363 23z"/>
<path d="M522 1604 l-103 -101 49 -41 50 -42 113 0 c111 1 113 1 87 17 -38 24
-54 64 -36 92 7 12 17 21 23 22 14 2 68 2 81 0 7 -1 11 -66 11 -201 l0 -201
216 -217 217 -217 0 110 0 110 -135 135 -135 134 2 175 3 175 40 2 c62 2 65
-1 65 -72 l0 -64 80 0 80 0 0 143 0 142 -302 1 -303 0 -103 -102z"/>
<path d="M1326 1700 c-2 -5 0 -957 3 -973 0 -5 31 24 69 63 l67 73 5 191 5
191 188 0 187 0 76 73 c42 41 73 77 69 80 -4 4 -122 7 -263 7 l-257 0 -3 68
c-2 37 1 68 5 68 4 1 89 3 188 4 170 2 181 1 203 -19 21 -18 37 -21 133 -21
60 0 109 0 109 1 0 1 -45 46 -99 100 l-99 99 -292 0 c-160 1 -293 -2 -294 -5z"/>
<path d="M510 1263 c0 -38 24 -157 47 -233 33 -106 113 -240 191 -315 106
-104 230 -163 382 -181 25 -3 55 -7 68 -9 36 -6 26 8 -29 40 -28 17 -59 35
-68 40 -68 41 -271 228 -335 310 -22 28 -45 55 -51 60 -18 16 -136 194 -172
260 -31 57 -33 58 -33 28z"/>
<path d="M2005 1269 c-12 -40 -159 -262 -231 -349 -101 -121 -252 -254 -392
-345 -40 -26 -72 -48 -70 -50 8 -7 150 17 213 36 80 24 165 65 165 79 0 6 7
10 15 10 18 0 124 105 165 165 57 83 121 241 136 335 3 19 10 55 14 80 9 48
-3 78 -15 39z"/>
</g>
</svg>
